<?xml version="1.0" encoding="utf-8"?>
<!-- Generator: Adobe Illustrator 23.0.5, SVG Export Plug-In . SVG Version: 6.00 Build 0)  -->
<svg version="1.1" id="Слой_1" xmlns="http://www.w3.org/2000/svg" xmlns:xlink="http://www.w3.org/1999/xlink" x="0px" y="0px"
	 viewBox="0 0 1500 828" style="enable-background:new 0 0 1500 828;" xml:space="preserve">
<style type="text/css">
	.st0{fill:#E3ECFF;}
	.st1{fill:#FFB9B9;}
	.st2{fill:#132246;}
	.st3{fill:#A35964;}
	.st4{fill:#E69987;}
	.st5{fill:#E38563;}
	.st6{fill:#FF6584;}
	.st7{fill:#4E85DE;}
	.st8{fill:#455A64;}
	.st9{fill:#1A2326;}
	.st10{fill:url(#SVGID_1_);}
	.st11{fill:#4E5E6D;}
	.st12{fill:#587287;}
	.st13{fill:#DEDEDE;}
	.st14{fill:#90C0FC;}
	.st15{fill:url(#SVGID_2_);}
	.st16{opacity:0.45;}
	.st17{fill:#FFFFFF;}
	.st18{opacity:0.45;fill:#FFFFFF;}
	.st19{fill:#508CFA;}
	.st20{fill:#D29474;}
	.st21{fill:url(#SVGID_3_);}
	.st22{fill:#FDBB3D;}
	.st23{fill:#2F2E41;}
</style>
<g>
	<ellipse class="st0" cx="747.6" cy="652.8" rx="433.8" ry="32.9"/>
	<ellipse class="st0" cx="186.1" cy="747.7" rx="174.5" ry="25.9"/>
	<ellipse class="st0" cx="1313.9" cy="736.2" rx="174.5" ry="25.9"/>
	<g id="XMLID_1226_">
		<path id="XMLID_1249_" class="st1" d="M1319.7,246.9l9.6,8.5l4.2,14.3c0,0-6,4-8.3,7.5c-2.8,4.3-9.1,14.5-16.7,15.3
			c0,0-3.9-9.5-5-14.5c-1.1-5,0-14.5,0-14.5L1319.7,246.9z"/>
		<path id="XMLID_1238_" class="st1" d="M1295.5,188.6c-8.9,0.8-17.9,13.2-17.7,24.4c0.2,11.2-0.3,14.3-1,22.2
			c-0.7,7.9,2.4,15.6,5.7,23.9c2.2,5.5,11.1,6.8,18.8,4.9c7.1-1.7,13.6-5.4,15.8-7.6c2.2-2.1,2.6-9.6,2.6-9.6s10.5-1.5,15.3-11.2
			C1339.9,226.1,1339,184.6,1295.5,188.6z"/>
		<path id="XMLID_1236_" class="st2" d="M1319.7,246.9c0,0,9.6-3.8,8.7-14.4c-0.9-11-15.6-11.3-15-1.7c0,0,1.9-16.9,1-15.2
			c-3,6.1-23.9,8.2-32.5,4.1c-8.6-4.1-16.3-9.7-17.9-17.6c0,0,4.8-4,9-6.4c0,0-6.7,2.8-10.7-3.4c0,0,6.6,1.1,12.9-2.2
			c6.3-3.3,19.3-9.2,31.1-7.8c11.8,1.4,14.6,6.3,14.6,6.3s11-4.6,19.2,1.9c8.2,6.5,14,23.3,7,40.7c-7.1,17.4-17.8,24.3-17.8,24.3
			L1319.7,246.9z"/>
		<path id="XMLID_1235_" class="st2" d="M1320.9,188.5c0,0,6.4-4.1,16.1-2c9.7,2.2,18,15,18.2,33c0.2,18,9.4,76.6,3.5,83.1
			c-5.9,6.5-24.5-20.7-36.7-22c0,0,4.8-20.7-0.9-33.1c0,0,5.2,3.6,11.3-4.7S1320.9,188.5,1320.9,188.5z"/>
		<g id="XMLID_1227_">
			<path id="XMLID_1230_" class="st3" d="M1322.4,230.2c-1.6-0.6-4-0.5-5.4,0.6c-0.5,0.4,0.4,1.2,0.8,1.1c2.7-1,6-1.1,7.4,2
				c0.1,0.2,0.2,0,0.2-0.1C1325.1,232,1324.1,230.8,1322.4,230.2z"/>
			<path id="XMLID_1228_" class="st3" d="M1321.1,230.4c-0.3-0.1-1,0.6-0.9,0.8c0.4,0.2,1.1,0.7,1.5,1.3c0.6,1,0.7,1.9,0.6,3.1
				c-0.2,2.7-1.7,4.7-4.4,5.3c0,0-0.1,0.1,0,0.2c2.3,0.6,4.9-1.8,5.4-3.9C1323.9,234.9,1323.8,231.7,1321.1,230.4z"/>
		</g>
	</g>
	<g>
		<g>
			<g>
				<path class="st1" d="M1202.3,433.1c-1.7-1.9-3.9-2.3-5.9-2.2c-6.7,0.5-12.6,6.4-14.9,15c-1.1,4,4.2,5.4,5.7,9.5
					c2.9,7.8,14.8,2.9,18.9,0C1210.8,452,1204.6,435.7,1202.3,433.1z"/>
			</g>
			<g>
				<g>
					<path class="st4" d="M1259.8,363.6c-23.7,31.5-31.9,51-65.4,81.6c-4.8-1.9-4.7,2.7-9.2-3.5c11.9-14.3,26.4-53,51.9-90.5
						C1248.3,356.5,1247.7,361,1259.8,363.6z"/>
				</g>
				<g>
					<path class="st5" d="M1233.5,351.2c12.9-18.6,26.3-49.4,35.8-62c17.4-10.6,13.8,2.9,35.8,5.5c-11.6,27.6-26.2,51.5-43.5,73.7
						C1250.6,364.5,1242.3,358.5,1233.5,351.2z"/>
				</g>
			</g>
			<g>
				<path class="st5" d="M1359.4,285.5c-16.9-15.5-44.3-21.5-67.6-12.7c-10.8,4.1-19.4,11.8-25,21c-7.3,12.1-14.7,28-15.4,41.7
					c-0.4,8,2.3,16.6,8.2,22.4c1.9,27.9,8.2,73.3,8.9,79.2c0.8,6.3,98.2,0.8,98.2-3.6C1366.7,406.2,1391.7,315.2,1359.4,285.5z"/>
			</g>
			<g>
				<path class="st1" d="M1331.6,270.8c0,0.1,0,0.3,0,0.4c-1.3,20.3-30.9,22.3-34.9,2.4c-0.2-0.8-0.3-1.6-0.4-2.4l0,0
					C1307.8,267.9,1320.2,268,1331.6,270.8z"/>
			</g>
			<g>
				<path class="st1" d="M1269.8,434.2l62.1,12.9l-52.6,279c-1.9,4.2-27.3,8.7-27.7,2.7l4.2-6.7L1269.8,434.2z"/>
			</g>
			<g>
				<path class="st1" d="M1312.9,473.1c17.8-1.3,43.6-9.9,63-6.2c-3.3,40.3,0.1,258.2,0.1,258.2l-23.4,2
					C1352.6,727.1,1318.2,522,1312.9,473.1z"/>
			</g>
			<g>
				<path class="st6" d="M1251.6,551.1c5.9,2.9,114.9,7.1,139.2,0.8c0,0,10-35-23.3-129.5c-32.3,4.4-61.1,11.4-100.5,5.6
					C1261.3,481.7,1251.6,551.1,1251.6,551.1z"/>
			</g>
		</g>
	</g>
	<rect x="760.1" y="148.9" class="st7" width="76.5" height="3.6"/>
	<rect x="454.3" y="92.9" class="st7" width="76.5" height="3.6"/>
	<rect x="1081.6" y="374.1" class="st7" width="44" height="3.6"/>
	<rect x="326.4" y="339.9" class="st7" width="64.1" height="3"/>
	<g>
		<g>
			<g>
				<path class="st8" d="M1088.3,649.7h-691c-8,0-14.6-6.5-14.6-14.6V188.1c0-8,6.5-14.6,14.6-14.6h691c8,0,14.6,6.5,14.6,14.6
					v447.1C1102.9,643.2,1096.4,649.7,1088.3,649.7z"/>
			</g>
			<g>
				<path class="st8" d="M1119.2,656.2H366.3c-7.5,0-13.6-6.1-13.6-13.6v-28h780.2v28C1132.9,650.1,1126.8,656.2,1119.2,656.2z"/>
			</g>
			<g>
				<path class="st9" d="M1074.1,608.3H409.6c-4.1,0-7.5-3.4-7.5-7.5V199.9c0-4.1,3.4-7.5,7.5-7.5h664.5c4.1,0,7.5,3.4,7.5,7.5
					v400.9C1081.6,605,1078.2,608.3,1074.1,608.3z"/>
			</g>
			<g>
				<polygon class="st9" points="644.1,614.5 655.9,629.9 822.6,629.9 833.7,614.5 				"/>
			</g>
		</g>
		<g>
			<linearGradient id="SVGID_1_" gradientUnits="userSpaceOnUse" x1="415.3976" y1="401.6398" x2="1064.6233" y2="401.6398">
				<stop  offset="0" style="stop-color:#454C60"/>
				<stop  offset="0.5387" style="stop-color:#41485E"/>
				<stop  offset="1" style="stop-color:#37405B"/>
			</linearGradient>
			<rect x="415.4" y="205.9" class="st10" width="649.2" height="391.6"/>
		</g>
		<rect x="714.7" y="413.6" class="st11" width="323.1" height="167.7"/>
		<rect x="714.7" y="413.6" class="st12" width="323.1" height="27.8"/>
		<rect x="723.4" y="535.5" class="st13" width="124.8" height="9.9"/>
		<rect x="723.4" y="514.9" class="st13" width="195" height="9.9"/>
		<rect x="723.4" y="494.2" class="st13" width="174.9" height="9.9"/>
		<rect x="723.4" y="473.5" class="st13" width="124.8" height="9.9"/>
		<rect x="723.4" y="452.9" class="st13" width="141.9" height="9.9"/>
		<g>
			<circle class="st13" cx="733.2" cy="428.2" r="7"/>
			<circle class="st13" cx="755.7" cy="428.2" r="7"/>
			<circle class="st13" cx="781.8" cy="428.2" r="7"/>
		</g>
		<rect x="352.7" y="614.5" class="st9" width="780.2" height="4.5"/>
	</g>
	<g>
		<g>
			<rect x="434.2" y="234.6" class="st13" width="64.8" height="6.6"/>
		</g>
		<g>
			<rect x="517.1" y="284.6" class="st13" width="46.8" height="6.6"/>
		</g>
		<g>
			<rect x="571.2" y="284.6" class="st7" width="31" height="6.6"/>
		</g>
		<g>
			<rect x="634.6" y="485.2" class="st7" width="31" height="6.6"/>
		</g>
		<g>
			<rect x="608.4" y="284.6" class="st13" width="75" height="6.6"/>
		</g>
		<g>
			<rect x="434.9" y="385.1" class="st13" width="48.2" height="6.6"/>
		</g>
		<g>
			<rect x="564.4" y="435.3" class="st13" width="48.2" height="6.6"/>
		</g>
		<g>
			<rect x="502.1" y="435.3" class="st13" width="29.4" height="6.6"/>
		</g>
		<g>
			<rect x="434.9" y="435.3" class="st7" width="58.3" height="6.6"/>
		</g>
		<g>
			<rect x="434.9" y="460.2" class="st13" width="32.1" height="6.6"/>
		</g>
		<g>
			<rect x="511.6" y="234.6" class="st14" width="46" height="6.6"/>
		</g>
		<g>
			<rect x="511.6" y="309.6" class="st7" width="46" height="6.6"/>
		</g>
		<g>
			<rect x="488.6" y="334.6" class="st13" width="19.7" height="6.6"/>
		</g>
		<g>
			<rect x="468.9" y="359.9" class="st14" width="44.2" height="6.6"/>
		</g>
		<g>
			<rect x="519.8" y="359.9" class="st7" width="61" height="6.6"/>
		</g>
		<g>
			<rect x="434.9" y="334.8" class="st7" width="46" height="6.6"/>
		</g>
		<g>
			<rect x="517.5" y="334.8" class="st5" width="25.8" height="6.6"/>
		</g>
		<g>
			<rect x="434.7" y="284.6" class="st14" width="46" height="6.6"/>
		</g>
		<g>
			<rect x="475.4" y="410.3" class="st14" width="46" height="6.6"/>
		</g>
		<g>
			<rect x="476" y="460.2" class="st14" width="46" height="6.6"/>
		</g>
		<g>
			<rect x="557.7" y="460.2" class="st14" width="46" height="6.6"/>
		</g>
		<g>
			<rect x="434.7" y="309.6" class="st14" width="65.6" height="6.6"/>
		</g>
		<g>
			<rect x="742.1" y="234.6" class="st14" width="46" height="6.6"/>
		</g>
		<g>
			<rect x="578.2" y="485.2" class="st14" width="46" height="6.6"/>
		</g>
		<g>
			<rect x="802.4" y="234.6" class="st14" width="30.8" height="6.6"/>
		</g>
		<g>
			<rect x="906.6" y="259.6" class="st14" width="30.8" height="6.6"/>
		</g>
		<g>
			<rect x="570" y="234.6" class="st7" width="58.6" height="6.6"/>
		</g>
		<g>
			<rect x="471.2" y="485.2" class="st7" width="58.6" height="6.6"/>
		</g>
		<g>
			<rect x="798.4" y="259.6" class="st7" width="58.6" height="6.6"/>
		</g>
		<g>
			<rect x="726.5" y="284.6" class="st7" width="58.6" height="6.6"/>
		</g>
		<g>
			<rect x="540.7" y="435.3" class="st5" width="12.6" height="6.6"/>
		</g>
		<g>
			<rect x="672" y="234.6" class="st5" width="58.6" height="6.6"/>
		</g>
		<g>
			<rect x="578.2" y="410.6" class="st5" width="34.4" height="6.6"/>
		</g>
		<g>
			<rect x="639.4" y="234.6" class="st13" width="21.5" height="6.6"/>
		</g>
		<g>
			<rect x="570" y="309.6" class="st13" width="21.5" height="6.6"/>
		</g>
		<g>
			<rect x="871.1" y="259.6" class="st13" width="21.5" height="6.6"/>
		</g>
		<g>
			<rect x="434.2" y="259.6" class="st7" width="33.6" height="6.6"/>
		</g>
		<g>
			<rect x="523.7" y="385.3" class="st7" width="26.5" height="6.6"/>
		</g>
		<g>
			<rect x="476" y="259.6" class="st7" width="10.8" height="6.6"/>
		</g>
		<g>
			<rect x="698.5" y="259.6" class="st13" width="89.6" height="6.6"/>
		</g>
		<g>
			<rect x="612.5" y="460.2" class="st13" width="89.6" height="6.6"/>
		</g>
		<g>
			<rect x="494.8" y="259.6" class="st5" width="11.1" height="6.6"/>
		</g>
		<g>
			<rect x="660.9" y="259.6" class="st7" width="29.3" height="6.6"/>
		</g>
		<g>
			<rect x="690.2" y="284.6" class="st5" width="29.3" height="6.6"/>
		</g>
		<g>
			<rect x="624.8" y="435.3" class="st5" width="29.3" height="6.6"/>
		</g>
		<g>
			<rect x="539.5" y="485.2" class="st5" width="29.3" height="6.6"/>
		</g>
		<g>
			<rect x="590.8" y="259.6" class="st7" width="62.4" height="6.6"/>
		</g>
		<g>
			<rect x="532.7" y="410.6" class="st7" width="36.4" height="6.6"/>
		</g>
		<g>
			<rect x="530.4" y="460.2" class="st7" width="18.2" height="6.6"/>
		</g>
		<g>
			<rect x="560.5" y="259.6" class="st14" width="21.5" height="6.6"/>
		</g>
		<g>
			<rect x="513.3" y="563.1" class="st13" width="48.2" height="6.6"/>
		</g>
		<g>
			<rect x="642.4" y="563.1" class="st13" width="48.2" height="6.6"/>
		</g>
		<g>
			<rect x="481.8" y="538.1" class="st7" width="60.9" height="6.6"/>
		</g>
		<g>
			<rect x="583.2" y="538.1" class="st13" width="60.9" height="6.6"/>
		</g>
		<g>
			<rect x="571.4" y="563.1" class="st7" width="58.6" height="6.6"/>
		</g>
		<g>
			<rect x="444.5" y="563.1" class="st7" width="58.6" height="6.6"/>
		</g>
		<g>
			<rect x="435.5" y="513.2" class="st7" width="58.6" height="6.6"/>
		</g>
		<g>
			<rect x="504.9" y="513.2" class="st7" width="62.4" height="6.6"/>
		</g>
		<g>
			<rect x="603.5" y="513.2" class="st5" width="26.5" height="6.6"/>
		</g>
		<g>
			<rect x="550.7" y="538.1" class="st5" width="21.5" height="6.6"/>
		</g>
		<g>
			<rect x="447.2" y="538.1" class="st5" width="21.5" height="6.6"/>
		</g>
		<g>
			<rect x="488.3" y="284.6" class="st5" width="21.5" height="6.6"/>
		</g>
		<g>
			<rect x="492.5" y="385.3" class="st5" width="21.5" height="6.6"/>
		</g>
		<g>
			<rect x="514.9" y="259.6" class="st7" width="37.4" height="6.6"/>
		</g>
	</g>
	<path class="st7" d="M1138.1,577.8c-4.4,0-8-3.6-8-8c0-4.4,3.6-8,8-8c4.4,0,8,3.6,8,8C1146.2,574.2,1142.6,577.8,1138.1,577.8z
		 M1138.1,564.5c-2.9,0-5.3,2.4-5.3,5.3c0,2.9,2.4,5.3,5.3,5.3c2.9,0,5.3-2.4,5.3-5.3C1143.4,566.8,1141.1,564.5,1138.1,564.5z"/>
	<path class="st7" d="M583.2,131.8c-4.4,0-8-3.6-8-8c0-4.4,3.6-8,8-8c4.4,0,8,3.6,8,8C591.3,128.2,587.7,131.8,583.2,131.8z
		 M583.2,118.4c-2.9,0-5.3,2.4-5.3,5.3c0,2.9,2.4,5.3,5.3,5.3c2.9,0,5.3-2.4,5.3-5.3C588.5,120.8,586.2,118.4,583.2,118.4z"/>
	<path class="st7" d="M945.4,139.1c-4.4,0-8-3.6-8-8c0-4.4,3.6-8,8-8c4.4,0,8,3.6,8,8C953.4,135.5,949.8,139.1,945.4,139.1z
		 M945.4,125.7c-2.9,0-5.3,2.4-5.3,5.3c0,2.9,2.4,5.3,5.3,5.3c2.9,0,5.3-2.4,5.3-5.3C950.7,128.1,948.3,125.7,945.4,125.7z"/>
	<path class="st7" d="M342.4,393.1c-4.4,0-8-3.6-8-8c0-4.4,3.6-8,8-8c4.4,0,8,3.6,8,8C350.4,389.5,346.8,393.1,342.4,393.1z
		 M342.4,379.8c-2.9,0-5.3,2.4-5.3,5.3c0,2.9,2.4,5.3,5.3,5.3c2.9,0,5.3-2.4,5.3-5.3C347.7,382.2,345.3,379.8,342.4,379.8z"/>
	<path class="st7" d="M1152,304.2c-4.4,0-8-3.6-8-8c0-4.4,3.6-8,8-8c4.4,0,8,3.6,8,8C1160,300.6,1156.4,304.2,1152,304.2z
		 M1152,290.8c-2.9,0-5.3,2.4-5.3,5.3c0,2.9,2.4,5.3,5.3,5.3c2.9,0,5.3-2.4,5.3-5.3C1157.3,293.2,1154.9,290.8,1152,290.8z"/>
	<g>
		<rect x="355.4" y="509.4" class="st7" width="6.1" height="30.7"/>
		<rect x="343.1" y="521.7" class="st7" width="30.7" height="6.1"/>
	</g>
	<rect x="1088.6" y="158.2" class="st7" width="76.5" height="3.6"/>
	<rect x="1045.9" y="130" class="st7" width="44" height="3.6"/>
	<rect x="1128" y="202" class="st7" width="64.1" height="3"/>
	<rect x="1180.3" y="186.4" class="st7" width="32" height="3"/>
	<rect x="283.7" y="320.7" class="st7" width="64.1" height="3"/>
	<rect x="336" y="305.1" class="st7" width="32" height="3"/>
	<rect x="382.8" y="134.4" class="st7" width="64.1" height="3"/>
	<rect x="435" y="118.8" class="st7" width="32" height="3"/>
	<g>
		<linearGradient id="SVGID_2_" gradientUnits="userSpaceOnUse" x1="1143.9303" y1="421.1687" x2="1344.3837" y2="421.1687">
			<stop  offset="0" style="stop-color:#454C60"/>
			<stop  offset="0.5387" style="stop-color:#41485E"/>
			<stop  offset="1" style="stop-color:#37405B"/>
		</linearGradient>
		<path class="st15" d="M1331.4,477.3h-159.5l-27.5,27.3l-0.4-51V350.8c0-7.2,5.8-13,13-13h174.4c7.2,0,13,5.8,13,13v113.5
			C1344.4,471.5,1338.6,477.3,1331.4,477.3z"/>
		<g>
			<g class="st16">
				<rect x="1236.1" y="357.9" class="st17" width="91" height="8.7"/>
				<rect x="1236.1" y="371" class="st17" width="91" height="8.7"/>
				<rect x="1236.1" y="384" class="st17" width="91" height="8.7"/>
				<rect x="1236.1" y="396.6" class="st17" width="91" height="8.7"/>
				<rect x="1236.1" y="409.3" class="st17" width="91" height="8.7"/>
				<rect x="1236.1" y="432.3" class="st17" width="91" height="8.7"/>
				<rect x="1171.8" y="446" class="st17" width="155.3" height="8.7"/>
			</g>
			<g>
				<path class="st13" d="M1224.7,424.8H1164c-2.4,0-4.3-1.9-4.3-4.3v-58.2c0-2.4,1.9-4.3,4.3-4.3h60.7c2.4,0,4.3,1.9,4.3,4.3v58.2
					C1229,422.8,1227,424.8,1224.7,424.8z"/>
				<rect x="1171.8" y="433.1" class="st18" width="57.1" height="7.2"/>
			</g>
		</g>
	</g>
	<g>
		<path class="st19" d="M1266.1,717.7c0,0-3.3-5.9-6.6-6.1c-3.2-0.2-24.5,13.4-33.2,13.8c-8.7,0.5-16.1,11.2-12.9,12.6
			c24,10.5,67.9,7.8,67.9,7.8s1.8-19.3,0.5-25.5C1280.4,714.2,1272.5,720,1266.1,717.7z"/>
	</g>
	<g>
		<path class="st17" d="M1247,729.8c-0.1-0.2-2.1-5-5.3-7.2c-4.3-2.9-9.3,0.3-8.9,0.9c0.3,0.6,4.5-1,7.6,1.1c2.7,1.8,4.5,6,4.5,6.1
			C1244.9,731,1247.2,730.4,1247,729.8z"/>
	</g>
	<g>
		<path class="st17" d="M1253.7,726.7c-0.1-0.2-2.1-5-5.3-7.2c-4.3-2.9-9.3,0.3-8.9,0.9c0.3,0.6,4.5-1,7.6,1.1
			c2.7,1.8,4.5,6,4.5,6.1C1251.6,727.9,1254,727.3,1253.7,726.7z"/>
	</g>
	<g>
		<path class="st17" d="M1260.7,723.4c-0.1-0.2-2.1-5-5.3-7.2c-4.3-2.9-9.3,0.3-8.9,0.9c0.3,0.6,4.5-1,7.6,1.1
			c2.7,1.8,4.5,6,4.5,6.1C1258.6,724.6,1261,724,1260.7,723.4z"/>
	</g>
	<g>
		<path class="st19" d="M1360.1,720.8c0,0-4-5.5-7.2-5.3c-3.2,0.2-22.9,16-31.5,17.4c-8.6,1.4-14.8,12.9-11.4,13.9
			c25,7.7,68.4,0.3,68.4,0.3s-0.3-19.4-2.4-25.4C1374,715.8,1366.7,722.4,1360.1,720.8z"/>
	</g>
	<g>
		<path class="st17" d="M1342.5,735c-0.1-0.2-2.6-4.7-6.1-6.5c-4.6-2.4-9.2,1.3-8.8,1.8c0.4,0.5,4.4-1.5,7.7,0.2
			c2.9,1.5,5.1,5.5,5.1,5.6C1340.5,736.4,1342.8,735.6,1342.5,735z"/>
	</g>
	<g>
		<path class="st17" d="M1348.8,731.2c-0.1-0.2-2.6-4.7-6.1-6.5c-4.6-2.4-9.2,1.3-8.8,1.8c0.4,0.5,4.4-1.5,7.7,0.2
			c2.9,1.5,5.1,5.5,5.1,5.6C1346.9,732.6,1349.1,731.8,1348.8,731.2z"/>
	</g>
	<g>
		<path class="st17" d="M1355.4,727.1c-0.1-0.2-2.6-4.7-6.1-6.5c-4.6-2.4-9.2,1.3-8.8,1.8c0.4,0.5,4.4-1.5,7.7,0.2
			c2.9,1.5,5.1,5.5,5.1,5.6C1353.5,728.5,1355.8,727.7,1355.4,727.1z"/>
	</g>
	<g>
		<path class="st20" d="M135,316.2l-28.7-49.5c-4.6-8-4.5-17.9,0.4-25.7l34.5-55.1l11.1,15.6L129.4,254l36.8,37.3L135,316.2z"/>
		<g>
			<g>
				<linearGradient id="SVGID_3_" gradientUnits="userSpaceOnUse" x1="114.8657" y1="175.838" x2="315.3192" y2="175.838">
					<stop  offset="0" style="stop-color:#454C60"/>
					<stop  offset="0.5387" style="stop-color:#41485E"/>
					<stop  offset="1" style="stop-color:#37405B"/>
				</linearGradient>
				<path class="st21" d="M127.9,232h159.5l27.5,27.3l0.4-51V105.4c0-7.2-5.8-13-13-13H127.9c-7.2,0-13,5.8-13,13V219
					C114.9,226.1,120.7,232,127.9,232z"/>
			</g>
			<g>
				<rect x="129.2" y="215.6" class="st7" width="46" height="6.6"/>
			</g>
			<g>
				<rect x="184.3" y="215.6" class="st5" width="32" height="6.6"/>
			</g>
			<g>
				<rect x="224.9" y="215.6" class="st14" width="35.3" height="6.6"/>
			</g>
			<g>
				<rect x="184.3" y="196.7" class="st13" width="32" height="6.6"/>
			</g>
			<g>
				<rect x="224.9" y="196.7" class="st7" width="62" height="6.6"/>
			</g>
			<g>
				<rect x="161.3" y="177.8" class="st13" width="46" height="6.6"/>
			</g>
			<g>
				<rect x="249" y="177.8" class="st5" width="27.5" height="6.6"/>
			</g>
			<g>
				<rect x="126.2" y="177.8" class="st5" width="27.5" height="6.6"/>
			</g>
			<g>
				<rect x="165.6" y="158.8" class="st7" width="46" height="6.6"/>
			</g>
			<g>
				<rect x="127.4" y="158.8" class="st14" width="12.5" height="6.6"/>
			</g>
			<g>
				<rect x="224.9" y="158.8" class="st13" width="62" height="6.6"/>
			</g>
			<g>
				<rect x="129.2" y="139.9" class="st5" width="46" height="6.6"/>
			</g>
			<g>
				<rect x="221.5" y="139.9" class="st14" width="32" height="6.6"/>
			</g>
			<g>
				<rect x="184.3" y="139.9" class="st14" width="16" height="6.6"/>
			</g>
			<g>
				<rect x="152.2" y="121" class="st13" width="32" height="6.6"/>
			</g>
			<g>
				<rect x="197.3" y="121" class="st7" width="65.4" height="6.6"/>
			</g>
			<g>
				<rect x="129.2" y="102.1" class="st7" width="46" height="6.6"/>
			</g>
			<g>
				<rect x="184.3" y="102.1" class="st14" width="32" height="6.6"/>
			</g>
			<g>
				<rect x="242.6" y="102.1" class="st5" width="32" height="6.6"/>
			</g>
		</g>
		<path class="st20" d="M241.4,313.1l36.2-30.7c8.4-7.2,12.7-18.1,11.2-29.1l-7.5-56.3l-16.9,0.5l-1.6,56.4l-39.1,27.4L241.4,313.1z
			"/>
		<polygon class="st20" points="222,699.5 233.4,740 260.1,740 257.6,703.6 		"/>
		<polygon class="st20" points="166.2,699.5 154.8,740 128.1,740 130.6,703.6 		"/>
		<g>
			<g>
				<path class="st20" d="M203.4,254h-31.8c0,0,1.2,8.6-0.9,18.3c-1.8,8.4-6,16-6,16s18.4,9.4,29,7.6c10.6-1.8,18.5-8.3,18.5-8.3
					s-7.1-10.4-8-15.3C203.4,267.3,203.4,254,203.4,254z"/>
				<path class="st22" d="M204.1,192c0,0,4.7,0,8.1-3.3c-8.1-2.7-17.4-3.9-23.8,0.4c-5-4.1-13.3-5.5-18.8-1.9
					c4.1,1.7,5.8,3.3,5.8,3.3s-9.3-0.4-14.7,5.4c1.2,0.6,3.9,1.2,3.9,1.2s-10.3,7.8-7.9,26.7c1.4,11.3,6.4,23.6,13.5,31.9
					c5.1,5.9,10.4,5.9,18.2,13.7c5.5-6.8,12.7-7.7,17.4-13.4c6.6-8.1,10.9-20.2,11.9-31.6C220.4,194.4,204.1,192,204.1,192z"/>
				<g>
					<g>
						<g>
							<path class="st23" d="M162.7,751.7L162.7,751.7c-0.4-3.9-1.6-10.5-4.5-17.2c-0.9-2-4.9-5.2-7.7-4.4
								c-6.8,1.9-10.1,7.9-14.7,7.9c-5.4,0-7-7.9-7-7.9s-24.6,5.6-28.9,10.2c-4.3,4.6-3,15-3,15h65.8h0.3
								C162.9,755.3,162.9,753.9,162.7,751.7L162.7,751.7z"/>
						</g>
						<g>
							<path class="st23" d="M283,740.3c-4.3-4.6-24.3-10.3-24.3-10.3s-6.3,8-11.6,8c-4.6,0-7.9-6-14.7-7.9
								c-2.8-0.8-6.8,2.4-7.7,4.4c-2.9,6.7-4.1,13.3-4.5,17.2h0v0c-0.3,2.2-0.3,3.5-0.3,3.5h0.3H286
								C286,755.3,287.3,744.9,283,740.3z"/>
						</g>
					</g>
				</g>
				<path class="st7" d="M235.8,421c0,0-26.4,1.9-35.2,2.5c-12.2,0.7-55.7-2.7-55.7-2.7s-17.5,263-20.6,297.7
					c8.4,2.9,38.9,6.4,42.6,5.7c1.8-25.5,27.6-179.3,27.6-179.3s24.5,150.4,27.6,176.4c4.6,1.9,36.5-0.7,44.1-6
					C266.2,596.9,235.8,421,235.8,421z"/>
				<path class="st13" d="M241.3,347.8c2.3-19.9-9.8-72.8-32.8-71.2c-14.5,7.1-40.7-0.9-40.7-0.9l-22.4,44.9c0,0-6,107.5-9.3,128
					c-0.7,4.2-1.1,6.7-1.1,6.7s24.6,12.8,73.7,8.7c29.7-2.5,37.9-11.1,37.9-11.1s-8.6-36.7-7.9-51.7
					C239.3,383.4,239.8,360.7,241.3,347.8z"/>
			</g>
		</g>
		<path class="st13" d="M150.8,354.4c0-1.1-30.7-55.4-30.7-55.4l26.5-32.7l26.7,10.9l-3.7,65.7L150.8,354.4z"/>
		<polygon class="st13" points="233.6,348.4 260.4,308.1 241.9,266.3 208.5,276.7 201.5,311 		"/>
		<path class="st20" d="M282.1,205.2c-0.5-5.3-0.9-8.7-1-9c1-6,1.2-11.1,0.9-15.7c-0.2-4.5-0.9-8.3-1.7-11.8l-1.2-11.2
			c-0.1-1.2-1.2-2-2.5-1.9c-1.3,0.2-2.2,1.3-2.1,2.5c0,0,0.4,9.2,0.2,10.2c-0.3-0.6-2.2-14.8-2.2-14.8c-0.1-1.2-1.3-2-2.5-1.8
			c-1.3,0.2-2.2,1.3-2.1,2.5c0,0,0.9,13.5,0.8,14.5c-0.4-0.8-2.5-15.3-2.5-15.3c-0.1-1.2-1.3-2-2.5-1.8c-1.3,0.2-2.2,1.3-2.1,2.6
			c0,0,1.1,15.6,0.9,15.7c-0.3,0-2.1-13.2-2.1-13.2c-0.1-1.2-1.3-2-2.5-1.8c-1.3,0.2-2.2,1.3-2.1,2.5l1.4,13.9
			c-0.2,0.1,1.5,14.3-1.4,15.8c-2.1,1.1-7.4,0.8-9.4,2.6c-0.7,0.6-1.7,2.2-0.7,2.4c2.7,0.4,10.2,0.8,14.7,4.4
			c1.5,1.1,3.5,1.9,5.4,2.4c-0.1,1.9-0.4,4.6-0.6,7.7L282.1,205.2z"/>
	</g>
	<path class="st1" d="M1399.1,398.1c-3.7-31.9-15.9-74.4-31-100.9c-4.6,5.8-10.3,32.3-10.3,39.6c1.1,10.6,7.5,21.7,14.8,46.7
		c-16.4,3.8-44.4,11.9-59.3,16.9c-0.5,0.1-1.2,0.1-1.9,0.3c-5.8-0.9-14.8-2.1-15.5-0.3c-0.8,1.8,0.3,3,2,3.5
		c-7.2,3.3-6.6,10.4-3.1,13.9c2.9,2.8,17.6-3.1,25-6.3C1336.6,410.8,1378.6,410.2,1399.1,398.1z"/>
	<g>
		<path class="st5" d="M1367.5,369.2c-4.5-11-8.8-25.1-9.6-32.4c0-7.3,5.7-33.8,10.3-39.6c9.7,17.1,20.1,41.8,27.3,65.7
			C1386.1,365,1376.8,367.1,1367.5,369.2z"/>
	</g>
</g>
</svg>
